<?xml version="1.0" encoding="UTF-8" standalone="no"?>
<svg width="17px" height="23px" viewBox="0 0 17 23" version="1.1" xmlns="http://www.w3.org/2000/svg" xmlns:xlink="http://www.w3.org/1999/xlink" xmlns:sketch="http://www.bohemiancoding.com/sketch/ns">
    <!-- Generator: Sketch 3.1 (8751) - http://www.bohemiancoding.com/sketch -->
    <title>about_icon_selected</title>
    <desc>Created with Sketch.</desc>
    <defs>
        <linearGradient x1="50%" y1="0%" x2="50%" y2="100%" id="linearGradient-1">
            <stop stop-color="#EE3526" offset="0%"></stop>
            <stop stop-color="#D02427" offset="100%"></stop>
        </linearGradient>
    </defs>
    <g id="Page-1" stroke="none" stroke-width="1" fill="none" fill-rule="evenodd" sketch:type="MSPage">
        <g id="Home-" sketch:type="MSArtboardGroup" transform="translate(-534.000000, -1072.000000)" fill="url(#linearGradient-1)">
            <g id="Tab-bar-2" sketch:type="MSLayerGroup" transform="translate(-1.000000, 1035.000000)">
                <g id="Icons" sketch:type="MSShapeGroup">
                    <g id="About" transform="translate(512.000000, 37.000000)">
                        <g id="about_icon_selected" transform="translate(24.000000, 0.000000)">
                            <path d="M15.371,22.769 L-0.313,22.769 L-0.313,2.315 L2.938,2.315 L2.938,3.141 L0.512,3.141 L0.512,21.942 L14.545,21.942 L14.545,3.138 L11.882,3.118 L11.888,2.292 L15.371,2.318 L15.371,22.769" id="Fill-1"></path>
                            <path d="M13.619,19.656 L1.438,19.656 L1.438,3.078 L3.172,3.078 L3.172,3.846 L2.207,3.846 L2.207,18.887 L12.85,18.887 L12.85,3.846 L11.719,3.846 L11.719,3.078 L13.619,3.078 L13.619,19.656" id="Fill-2"></path>
                            <path d="M12.298,5.342 L2.759,5.342 L2.759,1.398 L5.835,1.398 C6.021,0.635 6.71,0.068 7.528,0.068 C8.348,0.068 9.036,0.635 9.222,1.398 L12.298,1.398 L12.298,5.342 L12.298,5.342 Z M3.584,4.517 L11.472,4.517 L11.472,2.223 L8.445,2.223 L8.445,1.811 C8.445,1.305 8.034,0.893 7.528,0.893 C7.022,0.893 6.611,1.305 6.611,1.811 L6.611,2.223 L3.584,2.223 L3.584,4.517 L3.584,4.517 Z" id="Fill-3"></path>
                            <path d="M7.949,1.811 C7.949,2.043 7.76,2.231 7.528,2.231 C7.296,2.231 7.108,2.043 7.108,1.811 C7.108,1.579 7.296,1.39 7.528,1.39 C7.76,1.39 7.949,1.579 7.949,1.811" id="Fill-4"></path>
                            <path d="M7.528,2.438 C7.183,2.438 6.901,2.156 6.901,1.811 C6.901,1.465 7.183,1.184 7.528,1.184 C7.874,1.184 8.155,1.465 8.155,1.811 C8.155,2.156 7.874,2.438 7.528,2.438 L7.528,2.438 Z M7.528,1.597 C7.41,1.597 7.314,1.692 7.314,1.811 C7.314,1.929 7.41,2.024 7.528,2.024 C7.647,2.024 7.742,1.929 7.742,1.811 C7.742,1.692 7.647,1.597 7.528,1.597 L7.528,1.597 Z" id="Fill-5"></path>
                        </g>
                    </g>
                </g>
            </g>
        </g>
    </g>
</svg>