<?xml version="1.0" encoding="UTF-8" standalone="no"?>
<svg width="37px" height="20px" viewBox="0 0 37 20" version="1.1" xmlns="http://www.w3.org/2000/svg" xmlns:xlink="http://www.w3.org/1999/xlink" xmlns:sketch="http://www.bohemiancoding.com/sketch/ns">
    <!-- Generator: Sketch 3.1 (8751) - http://www.bohemiancoding.com/sketch -->
    <title>Imported Layers</title>
    <desc>Created with Sketch.</desc>
    <defs>
        <linearGradient x1="50%" y1="0%" x2="50%" y2="100%" id="linearGradient-1">
            <stop stop-color="#EE3526" offset="0%"></stop>
            <stop stop-color="#D02427" offset="100%"></stop>
        </linearGradient>
    </defs>
    <g id="Page-1" stroke="none" stroke-width="1" fill="none" fill-rule="evenodd" sketch:type="MSPage">
        <g id="Home-" sketch:type="MSArtboardGroup" transform="translate(-74.000000, -1065.000000)" fill="url(#linearGradient-1)">
            <g id="Tab-bar-2" sketch:type="MSLayerGroup" transform="translate(-1.000000, 1035.000000)">
                <g id="Icons" sketch:type="MSShapeGroup">
                    <g id="Rectangle-198-+-search_icon-2" transform="translate(0.000000, 2.000000)">
                        <g id="Imported-Layers" transform="translate(76.000000, 28.000000)">
                            <path d="M8.28567857,16.828984 C5.38982143,16.828984 3.03375,14.4771123 3.03375,11.5864171 C3.03375,8.69572193 5.38982143,6.34395722 8.28567857,6.34395722 C11.1815357,6.34395722 13.5376071,8.69572193 13.5376071,11.5864171 C13.5376071,14.4771123 11.1815357,16.828984 8.28567857,16.828984 L8.28567857,16.828984 Z M8.28567857,6.98566845 C5.74425,6.98566845 3.67660714,9.04951872 3.67660714,11.5864171 C3.67660714,14.1233155 5.74425,16.1872727 8.28567857,16.1872727 C10.8271071,16.1872727 12.89475,14.1233155 12.89475,11.5864171 C12.89475,9.04951872 10.8271071,6.98566845 8.28567857,6.98566845 L8.28567857,6.98566845 Z" id="Fill-1"></path>
                            <path d="M8.28567857,19.8930481 C3.69728571,19.8930481 -0.0356785714,16.166738 -0.0356785714,11.5864171 C-0.0356785714,7.00620321 3.69728571,3.27989305 8.28567857,3.27989305 C12.8741786,3.27989305 16.6071429,7.00620321 16.6071429,11.5864171 C16.6071429,16.166738 12.8741786,19.8930481 8.28567857,19.8930481 L8.28567857,19.8930481 Z M8.28567857,3.92160428 C4.05171429,3.92160428 0.607178571,7.36 0.607178571,11.5864171 C0.607178571,15.8129412 4.05171429,19.2513369 8.28567857,19.2513369 C12.51975,19.2513369 15.9642857,15.8129412 15.9642857,11.5864171 C15.9642857,7.36 12.51975,3.92160428 8.28567857,3.92160428 L8.28567857,3.92160428 Z" id="Fill-2"></path>
                            <path d="M14.2476429,6.20716578 C13.5732857,3.74256684 12.0114643,2.6113369 11.1406071,2.15636364 C10.9208571,2.04181818 10.9185,1.88620321 10.9088571,1.23080214 C10.9078929,1.16224599 10.9067143,1.08096257 10.905,1.0115508 C10.299,0.738181818 8.39121429,0.487272727 7.72585714,1.14342246 C6.8895,1.96834225 5.05360714,4.57614973 5.03517857,4.60245989 L4.43464286,4.18181818 C4.51135714,4.07240642 6.327,1.49358289 7.21028571,0.622459893 C8.22075,-0.374331551 10.8225,0.00331550802 11.4783214,0.501497326 C11.6336786,0.619893048 11.6350714,0.71144385 11.6424643,1.22 C11.6441786,1.32887701 11.6464286,1.48524064 11.6508214,1.59989305 C12.6496071,2.16331551 14.24925,3.4340107 14.9553214,6.01411765 L14.2476429,6.20716578" id="Fill-3"></path>
                            <path d="M27.5713929,16.8561497 C24.6605357,16.8561497 22.2923571,14.4921925 22.2923571,11.5864171 C22.2923571,8.68074866 24.6605357,6.31679144 27.5713929,6.31679144 C30.4823571,6.31679144 32.8505357,8.68074866 32.8505357,11.5864171 C32.8505357,14.4921925 30.4823571,16.8561497 27.5713929,16.8561497 L27.5713929,16.8561497 Z M27.5713929,6.95850267 C25.0149643,6.95850267 22.9352143,9.03454545 22.9352143,11.5864171 C22.9352143,14.1382888 25.0149643,16.2144385 27.5713929,16.2144385 C30.1278214,16.2144385 32.2076786,14.1382888 32.2076786,11.5864171 C32.2076786,9.03454545 30.1278214,6.95850267 27.5713929,6.95850267 L27.5713929,6.95850267 Z" id="Fill-4"></path>
                            <path d="M27.5713929,19.8930481 C22.983,19.8930481 19.2500357,16.166738 19.2500357,11.5864171 C19.2500357,7.00620321 22.983,3.27989305 27.5713929,3.27989305 C32.1598929,3.27989305 35.8928571,7.00620321 35.8928571,11.5864171 C35.8928571,16.166738 32.1598929,19.8930481 27.5713929,19.8930481 L27.5713929,19.8930481 Z M27.5713929,3.92160428 C23.3374286,3.92160428 19.8928929,7.36 19.8928929,11.5864171 C19.8928929,15.8129412 23.3374286,19.2513369 27.5713929,19.2513369 C31.8054643,19.2513369 35.25,15.8129412 35.25,11.5864171 C35.25,7.36 31.8054643,3.92160428 27.5713929,3.92160428 L27.5713929,3.92160428 Z" id="Fill-5"></path>
                            <path d="M21.5330357,6.77989305 L20.8955357,6.69604278 C21.1847143,4.50342246 22.5975,3.64791444 23.4416786,3.13679144 C23.5239643,3.08705882 23.5997143,3.04128342 23.6674286,2.99828877 C23.6575714,2.89925134 23.6416071,2.76887701 23.6304643,2.6771123 C23.5763571,2.23390374 23.5666071,2.1540107 23.6877857,2.03315508 C24.1976786,1.5231016 26.4116786,0.887807487 27.4071429,1.63283422 C28.2806786,2.28684492 29.3488929,3.49368984 29.3938929,3.54481283 L28.9115357,3.96887701 C28.9008214,3.95679144 27.8417143,2.76032086 27.0214286,2.14620321 C26.3656071,1.65518717 24.7399286,2.09903743 24.2457857,2.40834225 C24.2526429,2.46898396 24.2613214,2.53989305 24.2686071,2.59957219 C24.3379286,3.16887701 24.3545357,3.30417112 24.1774286,3.42983957 C24.0623571,3.5115508 23.9292857,3.59219251 23.7751071,3.68545455 C22.9812857,4.16609626 21.7818214,4.89240642 21.5330357,6.77989305" id="Fill-6"></path>
                            <path d="M15.3928929,14.9197861 L20.625,14.9197861 L20.625,15.5614973 L15.3928929,15.5614973 L15.3928929,14.9197861 Z" id="Fill-7"></path>
                            <path d="M18.0328929,13.2051337 C18.0147857,13.2051337 17.9965714,13.2045989 17.9781429,13.2035294 C17.4312857,13.1739037 16.9864286,12.6965775 16.9864286,12.1394652 C16.9864286,11.5650267 17.4409286,11.1129412 18.0087857,11.1408556 C18.5629286,11.1637433 19.0135714,11.6414973 19.0135714,12.2056684 C19.0135714,12.7660963 18.58275,13.2051337 18.0328929,13.2051337 L18.0328929,13.2051337 Z M17.9674286,11.7816043 C17.7778929,11.7816043 17.6292857,11.9388235 17.6292857,12.1394652 C17.6292857,12.3613904 17.8014643,12.5514439 18.0130714,12.5628877 C18.2183571,12.5730481 18.3707143,12.4164706 18.3707143,12.2056684 C18.3707143,11.9848128 18.1928571,11.7906952 17.9823214,11.7819251 L17.9674286,11.7816043 L17.9674286,11.7816043 Z" id="Fill-8"></path>
                            <path d="M19.9209643,11.7245989 L19.2781071,11.7245989 C19.2781071,10.8595722 18.6655714,10.1282353 17.9127857,10.0943316 C17.5958571,10.0779679 17.2888929,10.1972193 17.0508214,10.424492 C16.7627143,10.6993583 16.5975,11.1099465 16.5975,11.551016 L15.9546429,11.551016 C15.9546429,10.935615 16.1922857,10.3559358 16.6065,9.96064171 C16.9728214,9.61112299 17.4485357,9.42973262 17.9417143,9.45326203 C19.0331786,9.50256684 19.9209643,10.5213904 19.9209643,11.7245989" id="Fill-9"></path>
                            <path d="M18.0118929,7.15315508 C17.5766786,7.15315508 17.1391071,7.11518717 16.8568929,7.05080214 C16.1161071,6.88160428 14.32725,5.85882353 14.1257143,5.74278075 L14.4469286,5.18695187 C14.9713929,5.48898396 16.4526429,6.30010695 17.00025,6.42513369 C17.4542143,6.52887701 18.4655357,6.54887701 18.9174643,6.42812834 C19.4666786,6.28128342 20.9574643,5.48106952 21.4854643,5.18502674 L21.80025,5.74470588 C21.7198929,5.78973262 19.8228214,6.85037433 19.0836429,7.04780749 C18.8102143,7.12106952 18.4119643,7.15315508 18.0118929,7.15315508" id="Fill-10"></path>
                        </g>
                    </g>
                </g>
            </g>
        </g>
    </g>
</svg>