<?xml version="1.0" encoding="UTF-8" standalone="no"?>
<svg width="231px" height="99px" viewBox="0 0 231 99" version="1.1" xmlns="http://www.w3.org/2000/svg" xmlns:xlink="http://www.w3.org/1999/xlink" xmlns:sketch="http://www.bohemiancoding.com/sketch/ns">
    <!-- Generator: Sketch 3.1 (8751) - http://www.bohemiancoding.com/sketch -->
    <title>Rectangle 198 + search_icon 2</title>
    <desc>Created with Sketch.</desc>
    <defs>
        <linearGradient x1="50%" y1="0%" x2="50%" y2="100%" id="linearGradient-1">
            <stop stop-color="#EE3526" offset="0%"></stop>
            <stop stop-color="#D02427" offset="100%"></stop>
        </linearGradient>
    </defs>
    <g id="Page-1" stroke="none" stroke-width="1" fill="none" fill-rule="evenodd" sketch:type="MSPage">
        <g id="Home-" sketch:type="MSArtboardGroup" transform="translate(0.000000, -1037.000000)">
            <g id="Tab-bar-2" sketch:type="MSLayerGroup" transform="translate(-1.000000, 1035.000000)">
                <g id="Icons" sketch:type="MSShapeGroup">
                    <g id="Rectangle-198-+-search_icon-2" transform="translate(0.000000, 2.000000)">
                        <rect id="Rectangle-198" opacity="0.7" fill="#2A3132" x="0" y="0" width="232" height="99"></rect>
                        <g id="search_icon-2" transform="translate(78.000000, 38.000000)" fill="url(#linearGradient-1)">
                            <path d="M9.781695,21.1701875 C5.91951883,21.1701875 2.77736216,18.0262431 2.77736216,14.1620067 C2.77736216,10.2976588 5.91951883,7.1539375 9.781695,7.1539375 C13.6439827,7.1539375 16.7861393,10.2976588 16.7861393,14.1620067 C16.7861393,18.0262431 13.6439827,21.1701875 9.781695,21.1701875 L9.781695,21.1701875 Z M9.781695,7.93468145 C6.34981381,7.93468145 3.55768985,10.7282948 3.55768985,14.1620067 C3.55768985,17.5958302 6.34981381,20.3894435 9.781695,20.3894435 C13.2136877,20.3894435 16.0058116,17.5958302 16.0058116,14.1620067 C16.0058116,10.7282948 13.2136877,7.93468145 9.781695,7.93468145 L9.781695,7.93468145 Z" id="Fill-1"></path>
                            <path d="M9.76256973,23.932875 C4.39093175,23.932875 0.0208130564,19.54975 0.0208130564,14.162 C0.0208130564,8.774375 4.39093175,4.39125 9.76256973,4.39125 C15.1343323,4.39125 19.504451,8.774375 19.504451,14.162 C19.504451,19.54975 15.1343323,23.932875 9.76256973,23.932875 L9.76256973,23.932875 Z M9.76256973,5.26625 C4.872,5.26625 0.893216617,9.256875 0.893216617,14.162 C0.893216617,19.067125 4.872,23.057875 9.76256973,23.057875 C14.6531395,23.057875 18.6320475,19.067125 18.6320475,14.162 C18.6320475,9.256875 14.6531395,5.26625 9.76256973,5.26625 L9.76256973,5.26625 Z" id="Fill-2"></path>
                            <path d="M12.7720008,4.4418186 C12.5789207,4.32182153 12.4122607,4.21822497 12.2670837,4.11244167 C12.0139579,3.92820926 12.0377093,3.72894305 12.1257762,2.98750326 C12.1332486,2.92518132 12.141655,2.85315574 12.1492608,2.78673367 C11.5185146,2.40965858 9.56716471,1.88456888 8.80365101,2.47102383 C7.78767875,3.25141483 6.47294605,4.77529567 6.45973601,4.79060281 L5.75880322,4.15822643 C5.81511268,4.09289773 7.14986059,2.54564616 8.24322502,1.70566664 C9.55889176,0.695121797 12.3301983,1.57473589 12.9629459,2.22378612 C13.1362777,2.40145833 13.1202655,2.53621586 13.052881,3.10312687 C13.040605,3.20699677 13.0235253,3.3511846 13.0112493,3.46995164 C13.0859728,3.51792313 13.168302,3.56903806 13.256369,3.62370643 C14.3179759,4.28328033 16.0946598,5.38730808 16.4588032,8.22158977 L15.532766,8.346507 C15.2270669,5.96720283 13.7496773,5.04918421 12.7720008,4.4418186 Z" id="Fill-3" transform="translate(11.108803, 4.796507) rotate(-11.000000) translate(-11.108803, -4.796507) "></path>
                            <path d="M33.0103928,4.4418186 C32.8191172,4.32182153 32.6540147,4.21822497 32.5101945,4.11244167 C32.2594344,3.92820926 32.2829638,3.72894305 32.3702077,2.98750326 C32.3776102,2.92518132 32.3859381,2.85315574 32.3934728,2.78673367 C31.7686215,2.40965858 29.8355084,1.88456888 29.0791304,2.47102383 C28.0726532,3.25141483 26.7702077,4.77529567 26.7571211,4.79060281 L26.0627391,4.15822643 C26.1185223,4.09289773 27.440796,2.54564616 28.523942,1.70566664 C29.8273128,0.695121797 32.5727193,1.57473589 33.1995534,2.22378612 C33.3712652,2.40145833 33.3554027,2.53621586 33.2886479,3.10312687 C33.2764866,3.20699677 33.2595666,3.3511846 33.2474053,3.46995164 C33.3214305,3.51792313 33.4029903,3.56903806 33.4902342,3.62370643 C34.5419195,4.28328033 36.3019989,5.38730808 36.6627391,8.22158977 L35.7453564,8.346507 C35.4425144,5.96720283 33.9789321,5.04918421 33.0103928,4.4418186 Z" id="Fill-4" transform="translate(31.362739, 4.796507) scale(-1, 1) rotate(-13.000000) translate(-31.362739, -4.796507) "></path>
                            <path d="M32.1958148,20.6701875 C28.6179238,20.6701875 25.7070534,17.7505502 25.7070534,14.1620107 C25.7070534,10.5733676 28.6179238,7.6539375 32.1958148,7.6539375 C35.7738092,7.6539375 38.6846795,10.5733676 38.6846795,14.1620107 C38.6846795,17.7505502 35.7738092,20.6701875 32.1958148,20.6701875 L32.1958148,20.6701875 Z M32.1958148,8.37897868 C29.0165458,8.37897868 26.4299431,10.9732796 26.4299431,14.1620107 C26.4299431,17.3508454 29.0165458,19.9451463 32.1958148,19.9451463 C35.3751871,19.9451463 37.9617898,17.3508454 37.9617898,14.1620107 C37.9617898,10.9732796 35.3751871,8.37897868 32.1958148,8.37897868 L32.1958148,8.37897868 Z" id="Fill-4"></path>
                            <path d="M32.1958042,23.932875 C26.8241662,23.932875 22.4540475,19.54975 22.4540475,14.162 C22.4540475,8.774375 26.8241662,4.39125 32.1958042,4.39125 C37.5675668,4.39125 41.9376855,8.774375 41.9376855,14.162 C41.9376855,19.54975 37.5675668,23.932875 32.1958042,23.932875 L32.1958042,23.932875 Z M32.1958042,5.26625 C27.3052344,5.26625 23.326451,9.256875 23.326451,14.162 C23.326451,19.067125 27.3052344,23.057875 32.1958042,23.057875 C37.0863739,23.057875 41.0652819,19.067125 41.0652819,14.162 C41.0652819,9.256875 37.0863739,5.26625 32.1958042,5.26625 L32.1958042,5.26625 Z" id="Fill-5"></path>
                            <path d="M18.0297151,17.995375 L24.115727,17.995375 L24.115727,18.870375 L18.0297151,18.870375 L18.0297151,17.995375 Z" id="Fill-7"></path>
                            <path d="M21.1005757,16.116375 C21.0782671,16.116375 21.0559585,16.11575 21.0335252,16.1145 C20.3648902,16.078 19.8210089,15.492125 19.8210089,14.808375 C19.8208843,14.10125 20.374362,13.549125 21.075276,13.57875 C21.752635,13.607 22.3036202,14.19325 22.3036202,14.88575 C22.3036202,15.57575 21.7751929,16.116375 21.1005757,16.116375 L21.1005757,16.116375 Z M21.0244273,14.452625 C20.8357389,14.452625 20.6934125,14.605625 20.6934125,14.808375 C20.6934125,15.03125 20.8708843,15.22925 21.0808843,15.24075 L21.1005757,15.241375 C21.2890148,15.241375 21.4312166,15.0885 21.4312166,14.88575 C21.4312166,14.66 21.2517507,14.46175 21.0391335,14.453 L21.0244273,14.452625 L21.0244273,14.452625 Z" id="Fill-8"></path>
                            <path d="M23.3591039,14.3235 L22.4867003,14.3235 C22.4867003,13.3455 21.8009911,12.51875 20.958,12.4805 C20.6062967,12.46575 20.2658101,12.595625 20.0012226,12.849125 C19.6784332,13.158625 19.4932344,13.622125 19.4932344,14.120625 L18.6208309,14.120625 C18.6208309,13.384375 18.904362,12.690375 19.3983917,12.216625 C19.8369614,11.796375 20.4053947,11.578375 20.9972582,11.6065 C22.299632,11.6655 23.3591039,12.884375 23.3591039,14.3235" id="Fill-9"></path>
                            <path d="M21.1619569,9.01672559 C20.6041814,9.01672559 20.0436884,8.97185059 19.682527,8.89585059 C18.7332896,8.69610059 16.4565329,7.49660059 16.1999969,7.36035059 L16.675295,6.60247559 C17.3379677,6.95410059 19.2081801,7.89847559 19.8944953,8.04285059 C20.4632769,8.16260059 21.7282927,8.18585059 22.2932696,8.04672559 C22.9831177,7.87685059 24.8666461,6.94485059 25.5342102,6.59997559 L25.9999969,7.36285059 C25.7435969,7.49535059 23.4687424,8.66310059 22.5392072,8.89197559 C22.1874214,8.97860059 21.6758441,9.01672559 21.1619569,9.01672559" id="Fill-10"></path>
                        </g>
                    </g>
                </g>
            </g>
        </g>
    </g>
</svg>